<?xml version="1.0" encoding="utf-8"?>
<!-- Generator: Adobe Illustrator 20.1.0, SVG Export Plug-In . SVG Version: 6.00 Build 0)  -->
<svg version="1.1" id="Layer_1" xmlns="http://www.w3.org/2000/svg" xmlns:xlink="http://www.w3.org/1999/xlink" x="0px" y="0px"
	 viewBox="0 0 25 25" style="enable-background:new 0 0 25 25;" xml:space="preserve">
<style type="text/css">
	.st0{fill:#FFFFFF;}
	.st1{fill:#BCBEC0;stroke:#6D6E71;stroke-width:2;stroke-linejoin:round;stroke-miterlimit:50;}
</style>
<g>
	<path class="st0" d="M0.3,24.3c0-7.9,0-15.7,0-23.6c8.3,0,16.7,0,25,0c0,7.9,0,15.7,0,23.6C17,24.3,8.7,24.3,0.3,24.3z M19.9,23.5
		c0-0.1,0-0.1,0-0.2c-0.9-2.7-1.7-5.4-2.6-8.1c0-0.1,0-0.2,0.1-0.2c2.3-1.7,4.6-3.3,6.8-5c0,0,0.1-0.1,0.1-0.1c-0.1,0-0.1,0-0.2,0
		c-2.8,0-5.6,0-8.4,0c-0.1,0-0.2,0-0.2-0.2c-0.7-2-1.3-4.1-2-6.1C13.2,3,13,2.3,12.7,1.6C11.8,4.4,10.9,7.2,10,10
		c-2.9,0-5.8,0-8.8,0C1.3,10,1.3,10,1.4,10.1c2.3,1.7,4.6,3.3,6.8,5c0.1,0.1,0.1,0.1,0.1,0.2c-0.8,2.4-1.6,4.8-2.3,7.2
		c-0.1,0.3-0.2,0.7-0.3,1c0.1,0,0.1-0.1,0.1-0.1c2.3-1.7,4.6-3.3,6.8-5c0.1-0.1,0.2-0.1,0.3,0c1.9,1.4,3.8,2.8,5.8,4.2
		C19,22.9,19.4,23.2,19.9,23.5z"/>
	<path class="st1" d="M19.6,23.5c-0.4-0.3-0.8-0.6-1.2-0.9c-1.9-1.4-3.8-2.7-5.6-4.1c-0.1-0.1-0.2-0.1-0.3,0
		c-2.2,1.6-4.5,3.2-6.7,4.9c0,0-0.1,0-0.1,0.1c0.1-0.4,0.2-0.7,0.3-1c0.8-2.3,1.5-4.7,2.3-7c0-0.1,0-0.2-0.1-0.2
		c-2.2-1.6-4.5-3.2-6.7-4.9c0,0-0.1-0.1-0.2-0.1c2.9,0,5.8,0,8.6,0c0.9-2.7,1.8-5.4,2.7-8.2c0.2,0.7,0.5,1.4,0.7,2.1
		c0.6,2,1.3,4,1.9,6c0,0.1,0.1,0.2,0.2,0.2c2.8,0,5.5,0,8.3,0c0.1,0,0.1,0,0.2,0c-0.1,0.1-0.1,0.1-0.1,0.1c-2.2,1.6-4.5,3.2-6.7,4.9
		c-0.1,0.1-0.1,0.1-0.1,0.2c0.9,2.6,1.7,5.3,2.6,7.9C19.5,23.4,19.5,23.4,19.6,23.5z"/>
</g>
</svg>
