<svg id="Layer_1" data-name="Layer 1" xmlns="http://www.w3.org/2000/svg" viewBox="0 0 68.8 68.8"><defs><style>.cls-1{fill:#231f20;}</style></defs><title>Artboard 14</title><path class="cls-1" d="M58.75,50.51a46.69,46.69,0,0,0-22.16.86c-3.66-4.91-5.6-11.92-6.7-17.1C28.3,26.75,28,19,27.93,11.38a1,1,0,0,0-2,0c.11,9.45.52,19.08,3.24,28.2A43.8,43.8,0,0,0,34.68,52a48.87,48.87,0,0,0-5.9,2.4c-1.16.56-.14,2.29,1,1.73A46.09,46.09,0,0,1,36,53.63,16.24,16.24,0,0,0,42.1,58.3c1.19.49,1.7-1.44.53-1.93A13.58,13.58,0,0,1,38,53a44.39,44.39,0,0,1,20.23-.59C59.48,52.69,60,50.77,58.75,50.51Z"/><path class="cls-1" d="M38.74,36.45l-3.21,10.7a1,1,0,0,0,1.93.53L40.66,37A1,1,0,0,0,38.74,36.45Z"/><path class="cls-1" d="M26.55,43.11A14.25,14.25,0,0,0,24.24,40c-.7-.72-1.51-1.31-2.23-2a6.71,6.71,0,0,1-1.13-1.18q-1.79-1.48-.18-3.48a3.14,3.14,0,0,1,1.7-1.18,1,1,0,0,0,0-2c-2.86-.82-5.1,1.9-4.79,4.69.23,2.11,1.94,3.57,3.39,4.91a16.3,16.3,0,0,1,3.79,4.35,9.16,9.16,0,0,1,1.06,3.29,3.63,3.63,0,0,1-.2,1.63q-1.3,3.72-3.55,1c-.55-1.16-2.27-.15-1.73,1,1.62,3.45,6.15,2.2,7.23-1C28.41,47.81,27.65,45.16,26.55,43.11Z"/></svg>